<?xml version="1.0" encoding="UTF-8" standalone="no"?>
<!-- Created with Inkscape (http://www.inkscape.org/) -->

<svg
   width="128"
   height="128"
   viewBox="0 0 33.866666 33.866666"
   version="1.1"
   id="svg1"
   inkscape:version="1.3.2 (091e20e, 2023-11-25, custom)"
   sodipodi:docname="OptionsButton.svg"
   xmlns:inkscape="http://www.inkscape.org/namespaces/inkscape"
   xmlns:sodipodi="http://sodipodi.sourceforge.net/DTD/sodipodi-0.dtd"
   xmlns="http://www.w3.org/2000/svg"
   xmlns:svg="http://www.w3.org/2000/svg">
  <sodipodi:namedview
     id="namedview1"
     pagecolor="#ffffff"
     bordercolor="#000000"
     borderopacity="0.25"
     inkscape:showpageshadow="2"
     inkscape:pageopacity="0.0"
     inkscape:pagecheckerboard="0"
     inkscape:deskcolor="#d1d1d1"
     inkscape:document-units="px"
     inkscape:zoom="2.811532"
     inkscape:cx="55.485764"
     inkscape:cy="103.68013"
     inkscape:window-width="1920"
     inkscape:window-height="992"
     inkscape:window-x="2125"
     inkscape:window-y="-8"
     inkscape:window-maximized="1"
     inkscape:current-layer="layer1" />
  <defs
     id="defs1" />
  <g
     inkscape:label="Layer 1"
     inkscape:groupmode="layer"
     id="layer1">
    <rect
       style="fill:#442831;stroke-width:0.2;stroke-linecap:square;stroke-linejoin:round"
       id="rect9"
       width="29.643536"
       height="29.643536"
       x="3.034569"
       y="3.1286755"
       ry="3.3407793"
       rx="0" />
    <rect
       style="fill:#f6e4c1;stroke-width:0.2;stroke-linecap:square;stroke-linejoin:round"
       id="rect8"
       width="29.643536"
       height="29.643536"
       x="1.9762356"
       y="2.0703421"
       ry="3.3407793"
       rx="0" />
    <path
       id="path8"
       style="fill:#b1a29d;stroke-width:0.229308;stroke-linecap:square;stroke-linejoin:round"
       d="m 17.4625,4.2875935 c -1.850787,0 -3.340881,1.4900933 -3.340881,3.3408813 v 1.7688843 l -1.25057,-1.2505697 c -1.308706,-1.3087048 -3.4160716,-1.3087048 -4.7247763,0 -1.3087048,1.3087048 -1.3087048,3.4155546 0,4.7242596 l 1.2510864,1.251086 h -1.769401 c -1.8507881,0 -3.3403646,1.489577 -3.3403646,3.340365 0,1.850787 1.4895765,3.340881 3.3403646,3.340881 h 1.7688842 l -1.2505696,1.25057 c -1.3087048,1.308706 -1.3087048,3.41607 0,4.724776 1.3087047,1.308705 3.4160703,1.308705 4.7247763,0 l 1.25057,-1.25057 v 1.768885 c 0,1.850788 1.490094,3.340364 3.340881,3.340364 1.850788,0 3.340365,-1.489576 3.340365,-3.340364 v -1.769401 l 1.251086,1.251086 c 1.308705,1.308705 3.415555,1.308705 4.724259,0 1.308705,-1.308706 1.308705,-3.41607 0,-4.724776 l -1.250569,-1.25057 h 1.768884 c 1.850788,0 3.340881,-1.490094 3.340881,-3.340881 0,-1.850788 -1.490093,-3.340365 -3.340881,-3.340365 h -1.769401 l 1.251086,-1.251086 c 1.308705,-1.308705 1.308705,-3.4155548 0,-4.7242596 -1.308704,-1.3087048 -3.415554,-1.3087048 -4.724259,0 l -1.251086,1.2510864 v -1.769401 c 0,-1.850788 -1.489577,-3.3408813 -3.340365,-3.3408813 z m 0,10.2107465 a 2.9643536,2.9643536 0 0 1 2.96416,2.96416 2.9643536,2.9643536 0 0 1 -2.96416,2.96416 2.9643536,2.9643536 0 0 1 -2.96416,-2.96416 2.9643536,2.9643536 0 0 1 2.96416,-2.96416 z" />
    <path
       id="rect5"
       style="fill:#a8b7c6;stroke-width:0.229308;stroke-linecap:square;stroke-linejoin:round"
       d="M 16.933333 3.7584268 C 15.082546 3.7584268 13.592452 5.2485201 13.592452 7.0993081 L 13.592452 8.8681924 L 12.341882 7.6176227 C 11.033176 6.3089179 8.9258107 6.3089179 7.617106 7.6176227 C 6.3084012 8.9263275 6.3084012 11.033177 7.617106 12.341882 L 8.8681924 13.592968 L 7.0987914 13.592968 C 5.2480033 13.592968 3.7584268 15.082545 3.7584268 16.933333 C 3.7584268 18.78412 5.2480033 20.274214 7.0987914 20.274214 L 8.8676756 20.274214 L 7.617106 21.524784 C 6.3084012 22.83349 6.3084012 24.940854 7.617106 26.24956 C 8.9258107 27.558265 11.033176 27.558265 12.341882 26.24956 L 13.592452 24.99899 L 13.592452 26.767875 C 13.592452 28.618663 15.082546 30.108239 16.933333 30.108239 C 18.784121 30.108239 20.273698 28.618663 20.273698 26.767875 L 20.273698 24.998474 L 21.524784 26.24956 C 22.833489 27.558265 24.940339 27.558265 26.249043 26.24956 C 27.557748 24.940854 27.557748 22.83349 26.249043 21.524784 L 24.998474 20.274214 L 26.767358 20.274214 C 28.618146 20.274214 30.108239 18.78412 30.108239 16.933333 C 30.108239 15.082545 28.618146 13.592968 26.767358 13.592968 L 24.997957 13.592968 L 26.249043 12.341882 C 27.557748 11.033177 27.557748 8.9263275 26.249043 7.6176227 C 24.940339 6.3089179 22.833489 6.3089179 21.524784 7.6176227 L 20.273698 8.8687091 L 20.273698 7.0993081 C 20.273698 5.2485201 18.784121 3.7584268 16.933333 3.7584268 z M 16.933333 13.969173 A 2.9643536 2.9643536 0 0 1 19.897493 16.933333 A 2.9643536 2.9643536 0 0 1 16.933333 19.897493 A 2.9643536 2.9643536 0 0 1 13.969173 16.933333 A 2.9643536 2.9643536 0 0 1 16.933333 13.969173 z " />
  </g>
</svg>
