<?xml version="1.0" encoding="UTF-8" standalone="no"?>
<!-- Created with Inkscape (http://www.inkscape.org/) -->

<svg
   width="600"
   height="300"
   viewBox="0 0 158.75 79.375002"
   version="1.1"
   id="svg1"
   inkscape:version="1.3.2 (091e20e, 2023-11-25, custom)"
   sodipodi:docname="Title.svg"
   xmlns:inkscape="http://www.inkscape.org/namespaces/inkscape"
   xmlns:sodipodi="http://sodipodi.sourceforge.net/DTD/sodipodi-0.dtd"
   xmlns="http://www.w3.org/2000/svg"
   xmlns:svg="http://www.w3.org/2000/svg">
  <sodipodi:namedview
     id="namedview1"
     pagecolor="#ffffff"
     bordercolor="#000000"
     borderopacity="0.25"
     inkscape:showpageshadow="2"
     inkscape:pageopacity="0.0"
     inkscape:pagecheckerboard="0"
     inkscape:deskcolor="#d1d1d1"
     inkscape:document-units="px"
     inkscape:zoom="1.405766"
     inkscape:cx="361.01314"
     inkscape:cy="151.87449"
     inkscape:window-width="1920"
     inkscape:window-height="992"
     inkscape:window-x="2125"
     inkscape:window-y="-8"
     inkscape:window-maximized="1"
     inkscape:current-layer="layer1" />
  <defs
     id="defs1" />
  <g
     inkscape:label="Layer 1"
     inkscape:groupmode="layer"
     id="layer1">
    <path
       style="fill:#442831;stroke-width:1.05833;stroke-linecap:square;stroke-linejoin:round"
       d="m 33.425032,46.383625 -0.564637,28.231937 4.893535,-0.56464 V 60.311375 l 3.387833,12.422057 4.328896,-3.19962 -6.399239,-13.174897 4.517109,-9.59887 -4.328895,-1.5057 -3.387834,9.22243 -0.564639,-8.65779 z"
       id="path8-8" />
    <path
       style="fill:#442831;stroke-width:1.05833;stroke-linecap:square;stroke-linejoin:round"
       d="m 46.599937,72.921642 -0.75285,-25.785167 4.893535,-0.18821 1.882129,17.69201 6.211027,-17.88023 4.893535,1.50571 -7.152092,24.091247 c 0,0 -5.834599,0.37643 -6.022813,-0.94106 -0.188212,-1.31749 -2.634981,-14.304177 -2.634981,-14.304177 l 1.317491,16.186307 -4.140685,-0.75285 z"
       id="path9-4" />
    <path
       id="path10-6"
       style="fill:#442831;stroke-width:1.05833;stroke-linecap:square;stroke-linejoin:round"
       d="m 67.11508,47.512805 -6.21099,25.408777 13.73973,2.44688 5.646163,-24.467757 z m 2.352828,4.23488 6.305042,1.50584 -4.893758,17.409797 -6.399093,-1.97662 z" />
    <path
       style="fill:#442831;stroke-width:1.05833;stroke-linecap:square;stroke-linejoin:round"
       d="m 86.124653,49.395025 21.268067,0.56464 c 0,0 -0.37643,7.34031 -1.12928,7.52852 -0.75285,0.18822 -12.233847,-0.75285 -12.233847,-0.75285 l -0.18821,19.009507 c 0,0 -9.59886,-0.37643 -8.84601,-1.69392 0.75285,-1.31749 3.76426,-18.633087 3.76426,-18.633087 l -7.15209,-0.75285 1.12928,-5.8346 z"
       id="path11-2" />
    <path
       style="fill:#442831;stroke-width:1.05833;stroke-linecap:square;stroke-linejoin:round"
       d="m 21.36603,44.119525 c 0,0 -0.564639,-35.7604551 -1.505704,-35.7604551 -0.941064,0 4.328897,-1.129279 4.328897,-1.129279 l 2.070343,9.9752861 7.528515,-10.1635001 3.952473,2.258557 -9.222433,11.2927741 7.340304,19.574147 -6.587453,2.44677 -4.893536,-19.385934 -0.188213,20.891634 z"
       id="path1-7" />
    <path
       id="path2-3"
       style="fill:#442831;stroke-width:1.05833;stroke-linecap:square;stroke-linejoin:round"
       d="m 46.962809,8.3591119 -6.587195,0.376204 -2.823084,33.8785491 -0.564823,1.69396 6.587195,0.3762 -2.070158,-21.267951 1.693953,-0.941028 2.446879,21.832779 5.269963,-0.94103 z m -2.729033,3.6700601 0.470773,7.246069 -3.481958,0.28267 0.752925,-6.963916 z" />
    <path
       style="fill:#442831;stroke-width:1.05833;stroke-linecap:square;stroke-linejoin:round"
       d="m 54.679716,8.7354949 -0.941062,35.0076001 17.692013,-0.56463 -0.188212,-5.08175 -14.68061,0.94106 3.199623,-30.8669191 z"
       id="path3-3" />
    <path
       style="fill:#442831;stroke-width:1.05833;stroke-linecap:square;stroke-linejoin:round"
       d="m 83.099863,8.1708559 c -1.69391,0 -9.034214,0.188214 -9.034214,0.188214 l -0.188214,33.6901151 12.422058,0.56464 -0.75286,-5.269966 -8.093153,0.376425 v -6.399239 l 4.517113,-0.752851 0.56464,-5.081748 -4.705325,0.376425 0.188212,-12.610267 7.340303,-2.258554 z"
       id="path4-2" />
    <path
       style="fill:#442831;stroke-width:1.05833;stroke-linecap:square;stroke-linejoin:round"
       d="m 88.558043,7.9826419 0.56464,35.7604531 5.08175,0.56464 -1.88213,-36.8897301 z"
       id="path5-8" />
    <path
       id="path6-6"
       style="fill:#442831;stroke-width:1.05833;stroke-linecap:square;stroke-linejoin:round"
       d="m 97.216073,4.5949999 -1.12965,2.446363 1.50585,37.4545621 11.669067,-2.44688 4.32894,-5.834269 2.07067,-10.539925 -2.25877,-13.551628 -6.96392,-5.8342691 z m 1.599384,5.364014 7.810903,2.6349811 3.57601,7.716842 c 0,0 0.37672,7.528354 0.37672,8.187097 0,0.658746 -0.37634,5.834401 -1.03508,6.493144 -0.59619,0.596186 -7.89004,1.461903 -9.33018,1.628324 l 0.0134,0.253732 -0.564833,-0.188103 c 0,0 0.400273,-0.04817 0.551393,-0.06563 z" />
    <path
       id="path7-8"
       style="fill:#442831;stroke-width:1.05833;stroke-linecap:square;stroke-linejoin:round"
       d="m 134.67013,2.3362239 -11.66906,0.376204 -3.0117,2.634981 h 1.12965 l -2.07068,11.8576741 -0.3762,22.397082 2.25877,5.45858 h 15.80989 l 4.32842,-5.64668 V 5.1593069 Z m -2.25826,4.705139 3.01118,2.634981 1.69396,19.6685671 -4.70514,9.222174 c 0,0 -8.1874,-0.752924 -8.56382,-0.752924 -0.37643,0 -0.56482,-10.822078 -0.56482,-10.822078 l 1.22369,-19.5739991 z" />
    <path
       style="fill:#dc7d7d;stroke-width:1.05833;stroke-linecap:square;stroke-linejoin:round"
       d="m 31.555187,47.938497 -0.564637,28.231935 4.893535,-0.56464 V 61.866257 l 3.387833,12.422045 4.328896,-3.19962 -6.399239,-13.174895 4.517109,-9.598864 -4.328895,-1.505702 -3.387834,9.222436 -0.564639,-8.657799 z"
       id="path8" />
    <path
       style="fill:#dc7d7d;stroke-width:1.05833;stroke-linecap:square;stroke-linejoin:round"
       d="m 44.730092,74.476512 -0.75285,-25.785161 4.893535,-0.188214 1.882129,17.692018 6.211027,-17.880232 4.893535,1.505704 -7.152092,24.091245 c 0,0 -5.834599,0.37643 -6.022813,-0.94106 -0.188212,-1.31749 -2.634981,-14.304175 -2.634981,-14.304175 l 1.317491,16.186305 -4.140685,-0.75285 z"
       id="path9" />
    <path
       id="path10"
       style="fill:#dc7d7d;stroke-width:1.05833;stroke-linecap:square;stroke-linejoin:round"
       d="m 65.245235,49.067677 -6.21099,25.408775 13.73973,2.44688 5.646167,-24.467745 z m 2.352828,4.23488 6.305042,1.50585 -4.893758,17.409785 -6.399093,-1.97662 z" />
    <path
       style="fill:#dc7d7d;stroke-width:1.05833;stroke-linecap:square;stroke-linejoin:round"
       d="m 84.254807,50.949906 21.268063,0.564641 c 0,0 -0.37643,7.3403 -1.12928,7.52851 -0.75285,0.18822 -12.23384,-0.75285 -12.23384,-0.75285 l -0.188214,19.009505 c 0,0 -9.598858,-0.37643 -8.846008,-1.69392 0.752854,-1.31749 3.764259,-18.633075 3.764259,-18.633075 l -7.152089,-0.75285 1.129276,-5.834601 z"
       id="path11" />
    <path
       style="fill:#2e432f;stroke-width:1.05833;stroke-linecap:square;stroke-linejoin:round"
       d="m 19.496185,45.674402 c 0,0 -0.564639,-35.7604551 -1.505704,-35.7604551 -0.941064,0 4.328897,-1.129279 4.328897,-1.129279 l 2.070343,9.9752861 7.528515,-10.1635001 3.952473,2.2585571 -9.222433,11.292774 7.340304,19.574145 -6.587453,2.446768 -4.893536,-19.38593 -0.188213,20.891634 z"
       id="path1" />
    <path
       id="path2"
       style="fill:#566f95;stroke-width:1.05833;stroke-linecap:square;stroke-linejoin:round"
       d="m 45.092964,9.9139889 -6.587195,0.3762041 -2.823084,33.878552 -0.564823,1.693954 6.587195,0.376204 -2.070158,-21.267952 1.693953,-0.941028 2.446879,21.832776 5.269963,-0.941028 z m -2.729033,3.6700601 0.470773,7.246069 -3.481958,0.28267 0.752925,-6.963916 z" />
    <path
       style="fill:#2e432f;stroke-width:1.05833;stroke-linecap:square;stroke-linejoin:round"
       d="M 52.809871,10.290372 51.868809,45.297974 69.560822,44.733338 69.37261,39.651589 54.692,40.592654 57.891623,9.7257329 Z"
       id="path3" />
    <path
       style="fill:#dc7d7d;stroke-width:1.05833;stroke-linecap:square;stroke-linejoin:round"
       d="m 81.230023,9.7257329 c -1.693915,0 -9.034219,0.188214 -9.034219,0.188214 l -0.188214,33.6901121 12.422053,0.564639 -0.752851,-5.269962 -8.093157,0.376425 v -6.399239 l 4.517112,-0.752851 0.56464,-5.081748 -4.705324,0.376425 0.188212,-12.610267 7.340303,-2.258554 z"
       id="path4" />
    <path
       style="fill:#375c51;stroke-width:1.05833;stroke-linecap:square;stroke-linejoin:round"
       d="m 86.6882,9.5375189 0.564637,35.7604551 5.081749,0.56464 -1.88213,-36.8897321 z"
       id="path5" />
    <path
       id="path6"
       style="fill:#6aa8bd;stroke-width:1.05833;stroke-linecap:square;stroke-linejoin:round"
       d="m 95.346227,6.1498769 -1.129647,2.446363 1.505851,37.4545611 11.669059,-2.446879 4.32894,-5.834269 2.07067,-10.539925 -2.25877,-13.551628 -6.96392,-5.8342691 z m 1.599386,5.3640141 7.810897,2.634981 3.57601,7.716842 c 0,0 0.37672,7.528354 0.37672,8.187097 0,0.658746 -0.37634,5.834401 -1.03508,6.493144 -0.59619,0.596186 -7.890043,1.461903 -9.330186,1.628324 l 0.01344,0.253732 -0.564825,-0.188103 c 0,0 0.400269,-0.04817 0.551385,-0.06563 z" />
    <path
       id="path7"
       style="fill:#375c51;stroke-width:1.05833;stroke-linecap:square;stroke-linejoin:round"
       d="m 132.80028,3.8911009 -11.66906,0.376204 -3.0117,2.634981 h 1.12965 l -2.07068,11.8576741 -0.3762,22.397083 2.25877,5.458582 h 15.80989 l 4.32842,-5.646684 V 6.7141839 Z m -2.25826,4.705139 3.01118,2.6349811 1.69396,19.668567 -4.70514,9.222176 c 0,0 -8.1874,-0.752926 -8.56382,-0.752926 -0.37643,0 -0.56482,-10.822078 -0.56482,-10.822078 l 1.22369,-19.5739991 z" />
  </g>
</svg>
