<?xml version="1.0" encoding="UTF-8" standalone="no"?>
<!-- Created with Inkscape (http://www.inkscape.org/) -->

<svg
   width="1920"
   height="1080"
   viewBox="0 0 507.99999 285.75"
   version="1.1"
   id="svg1"
   inkscape:version="1.3.2 (091e20e, 2023-11-25, custom)"
   sodipodi:docname="BGForest.svg"
   xmlns:inkscape="http://www.inkscape.org/namespaces/inkscape"
   xmlns:sodipodi="http://sodipodi.sourceforge.net/DTD/sodipodi-0.dtd"
   xmlns="http://www.w3.org/2000/svg"
   xmlns:svg="http://www.w3.org/2000/svg">
  <sodipodi:namedview
     id="namedview1"
     pagecolor="#ffffff"
     bordercolor="#000000"
     borderopacity="0.25"
     inkscape:showpageshadow="2"
     inkscape:pageopacity="0.0"
     inkscape:pagecheckerboard="0"
     inkscape:deskcolor="#d1d1d1"
     inkscape:document-units="px"
     inkscape:zoom="0.24850667"
     inkscape:cx="386.30754"
     inkscape:cy="967.78088"
     inkscape:window-width="1920"
     inkscape:window-height="992"
     inkscape:window-x="2125"
     inkscape:window-y="-8"
     inkscape:window-maximized="1"
     inkscape:current-layer="layer1" />
  <defs
     id="defs1" />
  <g
     inkscape:label="Layer 1"
     inkscape:groupmode="layer"
     id="layer1">
    <rect
       style="fill:#442831;stroke-width:0.2;stroke-linecap:square;stroke-linejoin:round"
       id="rect1"
       width="612.06842"
       height="360.61597"
       x="-47.429657"
       y="-33.125473"
       ry="3.3407793" />
    <path
       style="fill:#566f95;stroke-width:0.2;stroke-linecap:square;stroke-linejoin:round"
       d="M -21.293862,5.3234655 -4.2587724,117.11624 171.41559,77.722594 c 0,0 162.89804,-4.25877 171.41559,-4.25877 8.51754,0 108.5987,1.064691 124.56908,3.194079 15.97041,2.129385 84.11075,17.035089 84.11075,17.035089 0,0 33.0055,-55.364041 31.94079,-68.140358 -1.06468,-12.776317 7.45287,-77.722596 -4.25876,-78.787289 -11.71162,-1.064692 -203.35639,3.194081 -292.79061,3.194081 -89.43421,0 -307.696292,55.3640395 -307.696292,55.3640395 z"
       id="path30" />
    <path
       style="fill:#a17a60;stroke-width:0.2;stroke-linecap:square;stroke-linejoin:round"
       d="m 47.429658,285.33079 c 0,-9.03422 6.775664,-274.790866 6.775664,-274.790866 0,0 21.079848,-6.7756655 22.585552,2.258555 1.505702,9.03422 -3.011408,273.285161 -3.011408,273.285161 z"
       id="path1" />
    <path
       style="fill:#a17a60;stroke-width:0.2;stroke-linecap:square;stroke-linejoin:round"
       d="m 132.5019,293.61217 c 2.25856,-8.28138 6.02281,-238.653995 6.02281,-238.653995 l 17.31559,-42.159696 15.05704,-0.752852 -17.31559,292.106453 -18.82129,-2.25856 -1.50571,-21.07983 2.25856,2.25854 z"
       id="path2" />
    <path
       style="fill:#a17a60;stroke-width:0.2;stroke-linecap:square;stroke-linejoin:round"
       d="M 219.8327,3.7642585 216.82129,308.66921 243.1711,307.16349 237.90114,10.539924 Z"
       id="path3" />
    <path
       style="fill:#a17a60;stroke-width:0.2;stroke-linecap:square;stroke-linejoin:round"
       d="M 290.60076,38.395436 282.31938,310.1749 c 0,0 22.58555,3.01141 21.8327,0 -0.75284,-3.01141 24.09127,-266.509501 17.31561,-267.262352 -6.77569,-0.752853 -30.86693,-4.517112 -30.86693,-4.517112 z"
       id="path4" />
    <path
       style="fill:#a17a60;stroke-width:0.2;stroke-linecap:square;stroke-linejoin:round"
       d="m 365.13308,18.821293 -7.52851,288.342197 15.80989,0.75285 9.0342,-289.847899 z"
       id="path5" />
    <path
       style="fill:#a17a60;stroke-width:0.2;stroke-linecap:square;stroke-linejoin:round"
       d="M 428.37261,30.114068 439.6654,301.89352 460.74525,298.12927 456.98097,30.114068 Z"
       id="path6" />
    <path
       style="fill:#a17a60;stroke-width:0.2;stroke-linecap:square;stroke-linejoin:round"
       d="m 479.56655,33.878326 3.01138,271.026604 18.06845,-3.76425 V 29.361217 Z"
       id="path7" />
    <path
       style="fill:#2e432f;stroke-width:0.2;stroke-linecap:square;stroke-linejoin:round"
       d="M 39.148289,-13.551331 -0.7528517,10.539924 -24.844106,51.193916 20.326996,63.992394 5.269962,97.87072 c 0,0 42.159696,-19.574144 42.912546,-22.58555 0.752854,-3.011408 29.361217,-11.292776 29.361217,-11.292776 l 22.585555,27.102662 13.55133,-41.406844 0.75285,-36.136881 c 0,0 33.12547,-3.764259 23.3384,-9.7870725 -9.78707,-6.0228136 -42.912545,-21.0798475 -50.441063,-21.0798475 -7.528517,0 -48.182508,3.764258 -48.182508,3.764258 z"
       id="path8" />
    <path
       style="fill:#2e432f;stroke-width:0.2;stroke-linecap:square;stroke-linejoin:round"
       d="m 120.45627,130.24335 30.86692,37.64258 37.64259,-3.76426 L 198,131.74905 201.0114,97.87072 172.40304,87.330797 156.59315,105.39924 116.69201,79.80228 105.39924,106.90494 c 0,0 -13.551333,27.10266 -10.539925,27.85552 3.011405,0.75285 17.315585,14.30418 17.315585,14.30418 z"
       id="path9" />
    <path
       style="fill:#2e432f;stroke-width:0.2;stroke-linecap:square;stroke-linejoin:round"
       d="m 124.22053,29.361217 10.53993,44.418249 36.13688,-0.75285 25.59695,9.034219 13.55134,-24.844105 -4.51712,-51.946768 c 0,0 -18.82129,9.787072 -21.07984,12.798479 -2.25856,3.011407 -18.8213,-28.608365 -18.8213,-28.608365 l -33.87832,33.878327 z"
       id="path10" />
    <path
       style="fill:#2e432f;stroke-width:0.2;stroke-linecap:square;stroke-linejoin:round"
       d="m 206.28137,126.47909 11.29277,49.68821 c 0,0 9.78707,-30.86692 12.79848,-26.34981 3.01141,4.51711 13.55133,21.07985 16.56274,19.57414 3.01141,-1.5057 16.56274,-41.40684 16.56274,-41.40684 0,0 0,-12.79848 -3.01141,-12.79848 -3.01141,0 -35.38403,-1.5057 -35.38403,-1.5057 z"
       id="path11" />
    <path
       style="fill:#2e432f;stroke-width:0.2;stroke-linecap:square;stroke-linejoin:round"
       d="m 217.57414,83.566539 9.78707,21.832701 c 0,0 19.57415,5.26996 24.84411,-3.76426 5.26996,-9.03422 9.03422,-18.821292 9.03422,-21.8327 0,-3.011406 -21.8327,-8.281368 -21.8327,-8.281368 z"
       id="path12" />
    <path
       style="fill:#2e432f;stroke-width:0.2;stroke-linecap:square;stroke-linejoin:round"
       d="m 210.04563,32.372622 9.78707,36.889735 h 31.61977 c 0,0 3.76426,-21.832699 11.29277,-23.338404 7.52851,-1.505704 20.32699,-41.4068427 20.32699,-41.4068427 L 243.92395,-5.269962 203.26996,6.7756653 204.02281,30.114068 Z"
       id="path13" />
    <path
       style="fill:#2e432f;stroke-width:0.2;stroke-linecap:square;stroke-linejoin:round"
       d="m 271.77947,78.296576 6.02281,57.216734 42.15969,7.52851 c 0,0 -3.01141,22.58555 6.02282,14.30419 9.03422,-8.28137 14.30419,-42.1597 7.5285,-51.19392 -6.77566,-9.03422 -3.0114,-48.182509 -3.0114,-52.699619 0,-4.517109 0,-29.361217 -17.31558,-31.619772 -17.3156,-2.258555 -33.12549,0.752852 -33.12549,3.764259 0,3.011406 -8.28135,52.699618 -8.28135,52.699618 z"
       id="path14" />
    <path
       style="fill:#2e432f;stroke-width:0.2;stroke-linecap:square;stroke-linejoin:round"
       d="m 301.14068,189.71863 -1.50569,16.56274 18.06842,4.51711 c 0,0 11.29278,-20.327 7.52853,-25.59696 -3.76425,-5.26996 -21.07986,-9.03422 -21.07986,-9.03422 z"
       id="path15" />
    <path
       style="fill:#2e432f;stroke-width:0.2;stroke-linecap:square;stroke-linejoin:round"
       d="m 353.84029,12.798479 0.75288,79.802281 34.63118,0.752851 c 0,0 37.64256,6.775669 36.13687,0 -1.5057,-6.775664 -8.28138,-63.992395 -8.28138,-63.992395 0,0 -13.55133,-21.0798472 -21.83271,-21.0798472 -8.28135,0 -41.40684,4.5171102 -41.40684,4.5171102 z"
       id="path16" />
    <path
       style="fill:#2e432f;stroke-width:0.2;stroke-linecap:square;stroke-linejoin:round"
       d="m 364.38022,147.55893 21.07986,16.56274 15.05704,-18.82129 c 0,0 18.82129,27.10266 18.82129,16.56273 0,-10.53992 3.01138,-36.88973 3.01138,-36.88973 l -24.09124,-3.76426 -21.8327,9.03423 -15.80988,-1.50571 z"
       id="path17" />
    <path
       style="fill:#2e432f;stroke-width:0.2;stroke-linecap:square;stroke-linejoin:round"
       d="m 427.61976,12.798479 0.75285,42.912547 18.06845,21.079848 17.3156,-20.326998 c 0,0 2.25854,-15.057032 0.75285,-19.574141 C 463.00379,32.372622 458.48669,3.0114068 451.71103,2.2585551 444.93537,1.5057034 427.61976,12.798479 427.61976,12.798479 Z"
       id="path18" />
    <path
       style="fill:#2e432f;stroke-width:0.2;stroke-linecap:square;stroke-linejoin:round"
       d="m 415.57413,99.376425 0.75287,19.574145 21.07983,7.52852 10.53994,-19.57415 -12.04563,-12.045625 z"
       id="path19" />
    <path
       style="fill:#2e432f;stroke-width:0.2;stroke-linecap:square;stroke-linejoin:round"
       d="m 438.91255,136.26616 3.76425,42.15969 19.57414,-16.56274 c 0,0 9.03423,21.8327 10.53992,10.53993 1.50572,-11.29278 6.02281,-33.12548 5.26997,-36.13688 -0.75285,-3.01141 -7.52851,-29.36122 -7.52851,-29.36122 z"
       id="path20" />
    <path
       style="fill:#2e432f;stroke-width:0.2;stroke-linecap:square;stroke-linejoin:round"
       d="m 443.42965,82.060835 2.25856,15.057035 18.06845,6.02281 9.78707,-12.045624 -1.50572,-18.821294 z"
       id="path21" />
    <path
       style="fill:#2e432f;stroke-width:0.2;stroke-linecap:square;stroke-linejoin:round"
       d="m 474.29658,11.292776 13.55132,70.015208 34.63118,-21.079849 5.26997,-36.889732 c 0,0 -18.06845,-22.5855513 -24.84411,-22.5855513 -6.77566,0 -28.60836,10.5399243 -28.60836,10.5399243 z"
       id="path22" />
    <path
       style="fill:#2e432f;stroke-width:0.2;stroke-linecap:square;stroke-linejoin:round"
       d="m 481.82508,100.12928 0.75285,43.66539 24.84411,-3.76425 c 0,0 8.28138,-20.327 9.03422,-24.84411 0.75285,-4.51711 -2.25856,-30.114067 -5.26994,-30.114067 -3.01141,0 -23.33842,6.022813 -23.33842,6.022813 z"
       id="path23" />
    <path
       style="fill:#2e432f;stroke-width:0.2;stroke-linecap:square;stroke-linejoin:round"
       d="m 472.79086,176.1673 4.51712,27.10266 16.56273,6.77567 11.29279,-23.33841 -18.06845,-20.32699 z"
       id="path24" />
    <path
       style="fill:#2e432f;stroke-width:0.2;stroke-linecap:square;stroke-linejoin:round"
       d="m 151.71876,183.65956 5.32347,27.68202 c 0,0 17.56744,-0.53235 17.56744,-3.19408 0,-2.66174 11.17927,-28.74671 11.17927,-28.74671 l -23.95559,3.19407 -8.51754,-3.19407 z"
       id="path25" />
    <path
       style="fill:#2e432f;stroke-width:0.2;stroke-linecap:square;stroke-linejoin:round"
       d="m 43.652416,105.40461 -27.68202,13.84101 c 0,0 3.726426,40.45834 6.388159,38.8613 2.661732,-1.59704 43.652417,-13.84101 47.378843,-12.24397 3.726426,1.59704 14.373357,26.08498 17.035089,18.09978 2.661732,-7.98519 11.179278,-42.05537 11.179278,-42.05537 l -34.602525,-9.04989 -14.373357,-7.9852 z"
       id="path26" />
    <path
       style="fill:#2e432f;stroke-width:0.2;stroke-linecap:square;stroke-linejoin:round"
       d="m 38.328951,173.54497 26.08498,25.02029 27.149673,-4.25877 c 0,0 2.661735,-16.50275 3.726426,-19.69682 1.064694,-3.19408 -19.164474,-5.32347 -19.164474,-5.32347 l -39.393645,1.59704 z"
       id="path27" />
    <path
       style="fill:#2e432f;stroke-width:0.2;stroke-linecap:square;stroke-linejoin:round"
       d="m 214.00331,193.77414 14.37336,20.76152 23.95559,-12.24397 7.9852,-20.76152 -31.40845,11.17928 -18.63213,-13.84101 z"
       id="path28" />
    <path
       style="fill:#2e432f;stroke-width:0.2;stroke-linecap:square;stroke-linejoin:round"
       d="m 358.80156,192.1771 -0.53234,13.30866 c 0,0 9.58225,-2.12938 15.43806,-2.12938 5.85582,0 9.58223,10.64693 11.71163,10.64693 2.12936,0 14.9057,-15.43805 15.43804,-17.56744 0.53234,-2.12938 -7.45286,-16.50274 -7.45286,-16.50274 l -19.16446,2.12939 z"
       id="path29" />
  </g>
</svg>
