<?xml version="1.0" encoding="UTF-8" standalone="no"?>
<!-- Created with Inkscape (http://www.inkscape.org/) -->

<svg
   width="1920"
   height="1080"
   viewBox="0 0 507.99999 285.75"
   version="1.1"
   id="svg1"
   inkscape:version="1.3.2 (091e20e, 2023-11-25, custom)"
   sodipodi:docname="BGSunset.svg"
   xmlns:inkscape="http://www.inkscape.org/namespaces/inkscape"
   xmlns:sodipodi="http://sodipodi.sourceforge.net/DTD/sodipodi-0.dtd"
   xmlns="http://www.w3.org/2000/svg"
   xmlns:svg="http://www.w3.org/2000/svg">
  <sodipodi:namedview
     id="namedview1"
     pagecolor="#ffffff"
     bordercolor="#000000"
     borderopacity="0.25"
     inkscape:showpageshadow="2"
     inkscape:pageopacity="0.0"
     inkscape:pagecheckerboard="0"
     inkscape:deskcolor="#d1d1d1"
     inkscape:document-units="px"
     inkscape:zoom="0.3514415"
     inkscape:cx="927.60815"
     inkscape:cy="837.97731"
     inkscape:window-width="1920"
     inkscape:window-height="992"
     inkscape:window-x="2125"
     inkscape:window-y="-8"
     inkscape:window-maximized="1"
     inkscape:current-layer="layer1" />
  <defs
     id="defs1" />
  <g
     inkscape:label="Layer 1"
     inkscape:groupmode="layer"
     id="layer1">
    <path
       style="fill:#dc7d7d;stroke-width:0.2;stroke-linecap:square;stroke-linejoin:round"
       d="M -10.646931,-10.646931 -3.7264258,141.60418 524.36135,118.18093 c 0,0 0,-121.3750093 0,-124.5690884 0,-3.1940793 -535.008281,-4.2587726 -535.008281,-4.2587726 z"
       id="path2" />
    <path
       style="fill:#f6e4c1;stroke-width:0.2;stroke-linecap:square;stroke-linejoin:round"
       d="m 137.76756,65.494296 c 8.27122,-23.548829 64.94628,-37.264258 64.94628,-37.264258 0,0 22.00366,0 33.00549,0 18.80958,0 37.63349,-0.734343 56.42873,0 20.45341,0.799129 61.21984,4.79112 61.21984,4.79112 l 15.97041,11.179276 c 0,0 18.17308,18.045172 17.03509,29.279061 -1.34261,13.253838 -14.35761,24.599265 -26.61732,29.811405 -64.55126,27.44358 -153.07566,32.61079 -210.27689,-7.9852 -8.70662,-6.179126 -15.2497,-19.738224 -11.71163,-29.811404 z"
       id="path3"
       sodipodi:nodetypes="acaaccaaaa" />
    <path
       style="fill:#442831;stroke-width:0.2;stroke-linecap:square;stroke-linejoin:round"
       d="M -2.6617326,109.13104 71.866783,71.334436 131.4896,65.478625 c 0,0 70.80209,-1.064694 78.78728,0.532347 7.9852,1.597038 68.14037,-2.661732 72.93148,-2.661732 4.79112,0 39.92599,0 53.23466,3.194079 13.30865,3.194079 67.608,1.597038 73.46382,1.064691 5.85581,-0.532344 54.83169,4.79112 58.02577,4.79112 3.19407,0 39.92599,10.114584 39.92599,10.114584 L 524.36135,309.82568 H -13.84101 Z"
       id="path1" />
  </g>
</svg>
