<?xml version="1.0" encoding="UTF-8" standalone="no"?>
<!-- Created with Inkscape (http://www.inkscape.org/) -->

<svg
   width="96"
   height="96"
   viewBox="0 0 25.399999 25.399999"
   version="1.1"
   id="svg1"
   inkscape:version="1.3.2 (091e20e, 2023-11-25, custom)"
   sodipodi:docname="cloud2.svg"
   xmlns:inkscape="http://www.inkscape.org/namespaces/inkscape"
   xmlns:sodipodi="http://sodipodi.sourceforge.net/DTD/sodipodi-0.dtd"
   xmlns="http://www.w3.org/2000/svg"
   xmlns:svg="http://www.w3.org/2000/svg">
  <sodipodi:namedview
     id="namedview1"
     pagecolor="#ffffff"
     bordercolor="#000000"
     borderopacity="0.25"
     inkscape:showpageshadow="2"
     inkscape:pageopacity="0.0"
     inkscape:pagecheckerboard="0"
     inkscape:deskcolor="#d1d1d1"
     inkscape:document-units="px"
     inkscape:zoom="3.9761067"
     inkscape:cx="40.36612"
     inkscape:cy="76.079448"
     inkscape:window-width="1920"
     inkscape:window-height="992"
     inkscape:window-x="2125"
     inkscape:window-y="-8"
     inkscape:window-maximized="1"
     inkscape:current-layer="layer1" />
  <defs
     id="defs1" />
  <g
     inkscape:label="Layer 1"
     inkscape:groupmode="layer"
     id="layer1">
    <path
       id="path1"
       style="fill:#b1a29d;stroke:#2e432f;stroke-width:0.3;stroke-linejoin:bevel"
       d="M 13.150618 2.8613239 A 5.3651938 3.5741169 0 0 0 7.8811724 5.8022296 A 5.921814 3.6598825 0 0 0 7.3855954 5.7893105 A 5.921814 3.6598825 0 0 0 1.4639933 9.4490353 A 5.921814 3.6598825 0 0 0 4.9345823 12.773897 A 7.1201348 3.5600674 0 0 0 4.1258462 14.406872 A 7.1201348 3.5600674 0 0 0 4.5552773 15.603698 A 6.7287903 4.158957 0 0 0 0 19.53059 A 6.7287903 4.158957 0 0 0 6.728788 23.689509 A 6.7287903 4.158957 0 0 0 11.803413 22.248254 A 6.4214296 5.2285376 0 0 0 15.404744 23.157242 A 6.4214296 5.2285376 0 0 0 21.826057 17.928621 A 6.4214296 5.2285376 0 0 0 19.326985 13.790372 A 7.7620163 3.8810081 0 0 0 25.399999 10.009725 A 7.7620163 3.8810081 0 0 0 18.498095 6.1536293 A 5.3651938 3.5741169 0 0 0 13.150618 2.8613239 z " />
  </g>
</svg>
