<?xml version="1.0" encoding="UTF-8" standalone="no"?>
<!-- Created with Inkscape (http://www.inkscape.org/) -->

<svg
   width="630"
   height="500"
   viewBox="0 0 166.6875 132.29167"
   version="1.1"
   id="svg1"
   xml:space="preserve"
   inkscape:version="1.3.2 (091e20e, 2023-11-25, custom)"
   sodipodi:docname="CoverImage.svg"
   xmlns:inkscape="http://www.inkscape.org/namespaces/inkscape"
   xmlns:sodipodi="http://sodipodi.sourceforge.net/DTD/sodipodi-0.dtd"
   xmlns:xlink="http://www.w3.org/1999/xlink"
   xmlns="http://www.w3.org/2000/svg"
   xmlns:svg="http://www.w3.org/2000/svg"><sodipodi:namedview
     id="namedview1"
     pagecolor="#ffffff"
     bordercolor="#000000"
     borderopacity="0.25"
     inkscape:showpageshadow="2"
     inkscape:pageopacity="0.0"
     inkscape:pagecheckerboard="0"
     inkscape:deskcolor="#d1d1d1"
     inkscape:document-units="px"
     inkscape:zoom="0.99402667"
     inkscape:cx="230.37611"
     inkscape:cy="354.61825"
     inkscape:window-width="1920"
     inkscape:window-height="992"
     inkscape:window-x="2125"
     inkscape:window-y="-8"
     inkscape:window-maximized="1"
     inkscape:current-layer="layer1" /><defs
     id="defs1"><linearGradient
       id="linearGradient1"
       inkscape:collect="always"><stop
         style="stop-color:#dc7d7d;stop-opacity:1;"
         offset="0"
         id="stop1" /><stop
         style="stop-color:#faa1a1;stop-opacity:1;"
         offset="1"
         id="stop2" /></linearGradient><radialGradient
       inkscape:collect="always"
       xlink:href="#linearGradient1"
       id="radialGradient2"
       cx="16.933332"
       cy="16.933332"
       fx="16.933332"
       fy="16.933332"
       r="7.1203085"
       gradientUnits="userSpaceOnUse" /><radialGradient
       inkscape:collect="always"
       xlink:href="#linearGradient1"
       id="radialGradient1"
       gradientUnits="userSpaceOnUse"
       cx="16.933332"
       cy="16.933332"
       fx="16.933332"
       fy="16.933332"
       r="7.1203085" /></defs><g
     inkscape:label="Layer 1"
     inkscape:groupmode="layer"
     id="layer1"><g
       inkscape:label="Layer 1"
       id="layer1-9"
       transform="matrix(0.4879349,0,0,0.4879349,-2.359781,7.0772957)"><path
         style="fill:#abf1f5;stroke-width:0.2;stroke-linecap:square;stroke-linejoin:round"
         d="m -19.164475,11.179278 8.517544,-30.8761 529.684811,6.920505 -1.06468,118.713277 c 0,0 -544.058181,37.79661 -543.525834,30.8761 0.532347,-6.9205 6.388159,-125.633782 6.388159,-125.633782 z"
         id="path2-1" /><path
         style="fill:#f6e4c1;stroke-width:0.2;stroke-linecap:square;stroke-linejoin:round"
         d="M -7.4528515,91.563604 38.861298,66.010972 128.82786,58.55812 c 0,0 126.69848,2.129385 126.69848,4.79112 0,2.661732 62.81688,9.582237 59.62281,13.308663 -3.19408,3.726426 60.6875,-22.890903 60.6875,-22.890903 0,0 39.39365,-12.776316 51.10528,-12.24397 11.71162,0.532347 71.86678,15.970396 74.52852,17.03509 2.66173,1.064694 19.16448,26.617326 19.16448,26.617326 l 0.53234,206.550454 c 0,0 -518.5055374,38.86131 -528.0877751,26.08498 C -16.502743,305.03458 -11.179278,93.692992 -11.179278,93.692992 Z"
         id="path1-5" /><path
         style="fill:#c1d3f7;stroke-width:0.2;stroke-linecap:square;stroke-linejoin:round"
         d="m -1.5970396,20.229169 22.8909016,7.985198 c 0,0 15.438049,-9.582238 20.761515,-9.582238 5.323465,0 27.682021,7.985197 27.682021,7.985197 L 102.21054,15.43805 c 0,0 31.40844,5.323465 30.87609,2.129386 -0.53234,-3.194079 -4.25877,-12.2439705 -4.25877,-12.2439705 L 111.26043,-3.7264258 60.687505,-6.9205051 c 0,0 -44.717109,12.2439706 -48.443535,12.7763171 C 8.5175446,6.3881584 -9.5822377,15.43805 -9.5822377,15.43805 Z"
         id="path3-7" /><path
         style="fill:#c1d3f7;stroke-width:0.2;stroke-linecap:square;stroke-linejoin:round"
         d="m 171.41559,25.552634 57.49342,2.129386 46.31414,1.597041 26.61735,-9.582239 13.84099,-11.1792774 -7.98518,-9.5822377 -29.27906,7.4528515 -31.40845,-3.7264258 -54.8317,6.3881587 c 0,0 -26.61733,4.2587717 -29.27906,5.3234657 -2.66173,1.064693 -12.24397,15.970395 -7.9852,16.502742 4.25878,0.532347 16.50275,-5.323465 16.50275,-5.323465 z"
         id="path4-5" /><path
         style="fill:#c1d3f7;stroke-width:0.2;stroke-linecap:square;stroke-linejoin:round"
         d="m 433.33008,18.632129 -8.51755,9.582238 h 14.37336 l 11.71162,5.323464 22.35856,-1.064691 -8.51754,-10.114585 -29.27906,-1.064693 z"
         id="path5-7" /><path
         style="fill:#c1d3f7;stroke-width:0.2;stroke-linecap:square;stroke-linejoin:round"
         d="m 450.89751,-1.5970396 15.97041,18.0997826 46.84649,6.920505 14.37336,-21.8262084 c 0,0 -49.50823,-14.9057026 -53.76701,-14.3733566 -4.25876,0.532347 -23.42325,11.1792774 -23.42325,11.1792774 z"
         id="path6-2" /></g><g
       inkscape:label="Layer 1"
       id="layer1-0"
       transform="translate(5.2222399,3.2827928)"><path
         style="fill:#442831;stroke-width:1.05833;stroke-linecap:square;stroke-linejoin:round"
         d="m 33.425032,46.383625 -0.564637,28.231937 4.893535,-0.56464 V 60.311375 l 3.387833,12.422057 4.328896,-3.19962 -6.399239,-13.174897 4.517109,-9.59887 -4.328895,-1.5057 -3.387834,9.22243 -0.564639,-8.65779 z"
         id="path8-8" /><path
         style="fill:#442831;stroke-width:1.05833;stroke-linecap:square;stroke-linejoin:round"
         d="m 46.599937,72.921642 -0.75285,-25.785167 4.893535,-0.18821 1.882129,17.69201 6.211027,-17.88023 4.893535,1.50571 -7.152092,24.091247 c 0,0 -5.834599,0.37643 -6.022813,-0.94106 -0.188212,-1.31749 -2.634981,-14.304177 -2.634981,-14.304177 l 1.317491,16.186307 -4.140685,-0.75285 z"
         id="path9-4" /><path
         id="path10-6"
         style="fill:#442831;stroke-width:1.05833;stroke-linecap:square;stroke-linejoin:round"
         d="m 67.11508,47.512805 -6.21099,25.408777 13.73973,2.44688 5.646163,-24.467757 z m 2.352828,4.23488 6.305042,1.50584 -4.893758,17.409797 -6.399093,-1.97662 z" /><path
         style="fill:#442831;stroke-width:1.05833;stroke-linecap:square;stroke-linejoin:round"
         d="m 86.124653,49.395025 21.268067,0.56464 c 0,0 -0.37643,7.34031 -1.12928,7.52852 -0.75285,0.18822 -12.233847,-0.75285 -12.233847,-0.75285 l -0.18821,19.009507 c 0,0 -9.59886,-0.37643 -8.84601,-1.69392 0.75285,-1.31749 3.76426,-18.633087 3.76426,-18.633087 l -7.15209,-0.75285 1.12928,-5.8346 z"
         id="path11-2" /><path
         style="fill:#442831;stroke-width:1.05833;stroke-linecap:square;stroke-linejoin:round"
         d="m 21.36603,44.119525 c 0,0 -0.564639,-35.7604551 -1.505704,-35.7604551 -0.941064,0 4.328897,-1.129279 4.328897,-1.129279 l 2.070343,9.9752861 7.528515,-10.1635001 3.952473,2.258557 -9.222433,11.2927741 7.340304,19.574147 -6.587453,2.44677 -4.893536,-19.385934 -0.188213,20.891634 z"
         id="path1-7" /><path
         id="path2-3"
         style="fill:#442831;stroke-width:1.05833;stroke-linecap:square;stroke-linejoin:round"
         d="m 46.962809,8.3591119 -6.587195,0.376204 -2.823084,33.8785491 -0.564823,1.69396 6.587195,0.3762 -2.070158,-21.267951 1.693953,-0.941028 2.446879,21.832779 5.269963,-0.94103 z m -2.729033,3.6700601 0.470773,7.246069 -3.481958,0.28267 0.752925,-6.963916 z" /><path
         style="fill:#442831;stroke-width:1.05833;stroke-linecap:square;stroke-linejoin:round"
         d="m 54.679716,8.7354949 -0.941062,35.0076001 17.692013,-0.56463 -0.188212,-5.08175 -14.68061,0.94106 3.199623,-30.8669191 z"
         id="path3-3" /><path
         style="fill:#442831;stroke-width:1.05833;stroke-linecap:square;stroke-linejoin:round"
         d="m 83.099863,8.1708559 c -1.69391,0 -9.034214,0.188214 -9.034214,0.188214 l -0.188214,33.6901151 12.422058,0.56464 -0.75286,-5.269966 -8.093153,0.376425 v -6.399239 l 4.517113,-0.752851 0.56464,-5.081748 -4.705325,0.376425 0.188212,-12.610267 7.340303,-2.258554 z"
         id="path4-2" /><path
         style="fill:#442831;stroke-width:1.05833;stroke-linecap:square;stroke-linejoin:round"
         d="m 88.558043,7.9826419 0.56464,35.7604531 5.08175,0.56464 -1.88213,-36.8897301 z"
         id="path5-8" /><path
         id="path6-6"
         style="fill:#442831;stroke-width:1.05833;stroke-linecap:square;stroke-linejoin:round"
         d="m 97.216073,4.5949999 -1.12965,2.446363 1.50585,37.4545621 11.669067,-2.44688 4.32894,-5.834269 2.07067,-10.539925 -2.25877,-13.551628 -6.96392,-5.8342691 z m 1.599384,5.364014 7.810903,2.6349811 3.57601,7.716842 c 0,0 0.37672,7.528354 0.37672,8.187097 0,0.658746 -0.37634,5.834401 -1.03508,6.493144 -0.59619,0.596186 -7.89004,1.461903 -9.33018,1.628324 l 0.0134,0.253732 -0.564833,-0.188103 c 0,0 0.400273,-0.04817 0.551393,-0.06563 z" /><path
         id="path7-8"
         style="fill:#442831;stroke-width:1.05833;stroke-linecap:square;stroke-linejoin:round"
         d="m 134.67013,2.3362239 -11.66906,0.376204 -3.0117,2.634981 h 1.12965 l -2.07068,11.8576741 -0.3762,22.397082 2.25877,5.45858 h 15.80989 l 4.32842,-5.64668 V 5.1593069 Z m -2.25826,4.705139 3.01118,2.634981 1.69396,19.6685671 -4.70514,9.222174 c 0,0 -8.1874,-0.752924 -8.56382,-0.752924 -0.37643,0 -0.56482,-10.822078 -0.56482,-10.822078 l 1.22369,-19.5739991 z" /><path
         style="fill:#dc7d7d;stroke-width:1.05833;stroke-linecap:square;stroke-linejoin:round"
         d="m 31.555187,47.938497 -0.564637,28.231935 4.893535,-0.56464 V 61.866257 l 3.387833,12.422045 4.328896,-3.19962 -6.399239,-13.174895 4.517109,-9.598864 -4.328895,-1.505702 -3.387834,9.222436 -0.564639,-8.657799 z"
         id="path8" /><path
         style="fill:#dc7d7d;stroke-width:1.05833;stroke-linecap:square;stroke-linejoin:round"
         d="m 44.730092,74.476512 -0.75285,-25.785161 4.893535,-0.188214 1.882129,17.692018 6.211027,-17.880232 4.893535,1.505704 -7.152092,24.091245 c 0,0 -5.834599,0.37643 -6.022813,-0.94106 -0.188212,-1.31749 -2.634981,-14.304175 -2.634981,-14.304175 l 1.317491,16.186305 -4.140685,-0.75285 z"
         id="path9" /><path
         id="path10"
         style="fill:#dc7d7d;stroke-width:1.05833;stroke-linecap:square;stroke-linejoin:round"
         d="m 65.245235,49.067677 -6.21099,25.408775 13.73973,2.44688 5.646167,-24.467745 z m 2.352828,4.23488 6.305042,1.50585 -4.893758,17.409785 -6.399093,-1.97662 z" /><path
         style="fill:#dc7d7d;stroke-width:1.05833;stroke-linecap:square;stroke-linejoin:round"
         d="m 84.254807,50.949906 21.268063,0.564641 c 0,0 -0.37643,7.3403 -1.12928,7.52851 -0.75285,0.18822 -12.23384,-0.75285 -12.23384,-0.75285 l -0.188214,19.009505 c 0,0 -9.598858,-0.37643 -8.846008,-1.69392 0.752854,-1.31749 3.764259,-18.633075 3.764259,-18.633075 l -7.152089,-0.75285 1.129276,-5.834601 z"
         id="path11" /><path
         style="fill:#2e432f;stroke-width:1.05833;stroke-linecap:square;stroke-linejoin:round"
         d="m 19.496185,45.674402 c 0,0 -0.564639,-35.7604551 -1.505704,-35.7604551 -0.941064,0 4.328897,-1.129279 4.328897,-1.129279 l 2.070343,9.9752861 7.528515,-10.1635001 3.952473,2.2585571 -9.222433,11.292774 7.340304,19.574145 -6.587453,2.446768 -4.893536,-19.38593 -0.188213,20.891634 z"
         id="path1" /><path
         id="path2"
         style="fill:#566f95;stroke-width:1.05833;stroke-linecap:square;stroke-linejoin:round"
         d="m 45.092964,9.9139889 -6.587195,0.3762041 -2.823084,33.878552 -0.564823,1.693954 6.587195,0.376204 -2.070158,-21.267952 1.693953,-0.941028 2.446879,21.832776 5.269963,-0.941028 z m -2.729033,3.6700601 0.470773,7.246069 -3.481958,0.28267 0.752925,-6.963916 z" /><path
         style="fill:#2e432f;stroke-width:1.05833;stroke-linecap:square;stroke-linejoin:round"
         d="M 52.809871,10.290372 51.868809,45.297974 69.560822,44.733338 69.37261,39.651589 54.692,40.592654 57.891623,9.7257329 Z"
         id="path3" /><path
         style="fill:#dc7d7d;stroke-width:1.05833;stroke-linecap:square;stroke-linejoin:round"
         d="m 81.230023,9.7257329 c -1.693915,0 -9.034219,0.188214 -9.034219,0.188214 l -0.188214,33.6901121 12.422053,0.564639 -0.752851,-5.269962 -8.093157,0.376425 v -6.399239 l 4.517112,-0.752851 0.56464,-5.081748 -4.705324,0.376425 0.188212,-12.610267 7.340303,-2.258554 z"
         id="path4" /><path
         style="fill:#375c51;stroke-width:1.05833;stroke-linecap:square;stroke-linejoin:round"
         d="m 86.6882,9.5375189 0.564637,35.7604551 5.081749,0.56464 -1.88213,-36.8897321 z"
         id="path5" /><path
         id="path6"
         style="fill:#6aa8bd;stroke-width:1.05833;stroke-linecap:square;stroke-linejoin:round"
         d="m 95.346227,6.1498769 -1.129647,2.446363 1.505851,37.4545611 11.669059,-2.446879 4.32894,-5.834269 2.07067,-10.539925 -2.25877,-13.551628 -6.96392,-5.8342691 z m 1.599386,5.3640141 7.810897,2.634981 3.57601,7.716842 c 0,0 0.37672,7.528354 0.37672,8.187097 0,0.658746 -0.37634,5.834401 -1.03508,6.493144 -0.59619,0.596186 -7.890043,1.461903 -9.330186,1.628324 l 0.01344,0.253732 -0.564825,-0.188103 c 0,0 0.400269,-0.04817 0.551385,-0.06563 z" /><path
         id="path7"
         style="fill:#375c51;stroke-width:1.05833;stroke-linecap:square;stroke-linejoin:round"
         d="m 132.80028,3.8911009 -11.66906,0.376204 -3.0117,2.634981 h 1.12965 l -2.07068,11.8576741 -0.3762,22.397083 2.25877,5.458582 h 15.80989 l 4.32842,-5.646684 V 6.7141839 Z m -2.25826,4.705139 3.01118,2.6349811 1.69396,19.668567 -4.70514,9.222176 c 0,0 -8.1874,-0.752926 -8.56382,-0.752926 -0.37643,0 -0.56482,-10.822078 -0.56482,-10.822078 l 1.22369,-19.5739991 z" /></g><g
       inkscape:label="Layer 1"
       id="layer1-01"
       transform="translate(0.00583052,96.182634)"><path
         sodipodi:type="star"
         style="fill:#6aa8bd;stroke-width:0.2;stroke-linecap:square;stroke-linejoin:round"
         id="path19"
         inkscape:flatsided="true"
         sodipodi:sides="5"
         sodipodi:cx="10.77519"
         sodipodi:cy="11.763308"
         sodipodi:r1="14.681589"
         sodipodi:r2="3.6329033"
         sodipodi:arg1="0.94162382"
         sodipodi:arg2="1.5699424"
         inkscape:rounded="0"
         inkscape:randomized="0"
         d="M 19.414952,23.633589 2.1557152,23.648328 -3.1916999,7.2383728 10.762653,-2.9182762 24.734332,7.2145246 Z"
         inkscape:transform-center-x="0.16996335"
         inkscape:transform-center-y="-0.89677216"
         transform="matrix(1.1928675,0,0,1.1928675,4.0845805,4.5692308)" /><path
         sodipodi:type="star"
         style="fill:#a8b7c6;stroke-width:0.2;stroke-linecap:square;stroke-linejoin:round"
         id="path15"
         inkscape:flatsided="true"
         sodipodi:sides="5"
         sodipodi:cx="10.77519"
         sodipodi:cy="11.763308"
         sodipodi:r1="14.681589"
         sodipodi:r2="3.6329033"
         sodipodi:arg1="0.94162382"
         sodipodi:arg2="1.5699424"
         inkscape:rounded="0"
         inkscape:randomized="0"
         d="M 19.414952,23.633589 2.1557152,23.648328 -3.1916999,7.2383728 10.762653,-2.9182762 24.734332,7.2145246 Z"
         inkscape:transform-center-x="0.16231977"
         inkscape:transform-center-y="-0.85644547"
         transform="matrix(1.1392268,0,0,1.1392268,4.6623614,5.1252181)" /><path
         sodipodi:type="star"
         style="fill:#c1d3f7;stroke-width:0.2;stroke-linecap:square;stroke-linejoin:round"
         id="path16"
         inkscape:flatsided="true"
         sodipodi:sides="5"
         sodipodi:cx="10.77519"
         sodipodi:cy="11.763308"
         sodipodi:r1="14.681589"
         sodipodi:r2="3.6329033"
         sodipodi:arg1="0.94162382"
         sodipodi:arg2="1.5699424"
         inkscape:rounded="0"
         inkscape:randomized="0"
         d="M 19.414952,23.633589 2.1557152,23.648328 -3.1916999,7.2383728 10.762653,-2.9182762 24.734332,7.2145246 Z"
         inkscape:transform-center-x="0.11889447"
         inkscape:transform-center-y="-0.6273209"
         transform="matrix(0.83444973,0,0,0.83444973,7.9452115,8.2842403)" /><path
         id="path17"
         style="fill:#6aa8bd;stroke-width:0.0752206;stroke-linecap:square;stroke-linejoin:round"
         inkscape:transform-center-x="0.05358821"
         inkscape:transform-center-y="-0.28274591"
         d="m 16.930233,6.9662414 -5.248259,3.8199216 2.002979,6.146912 -2.002979,6.147428 5.248259,3.819922 5.254459,-3.811137 -1.994193,-6.156213 1.994193,-6.155697 z" /></g><g
       inkscape:label="Layer 1"
       id="layer1-3"
       transform="translate(38.024842,86.395559)"><circle
         style="fill:#dc7d7d;stroke:#f5b0ac;stroke-width:1.05833;stroke-linecap:square;stroke-linejoin:round;stroke-dasharray:none"
         id="path1-4"
         cx="16.933332"
         cy="16.933332"
         r="12.912757" /><circle
         style="fill:url(#radialGradient1);stroke:#f5b0ac;stroke-width:0.560609;stroke-linecap:square;stroke-linejoin:round;stroke-dasharray:none"
         id="circle1"
         cx="16.933332"
         cy="16.933332"
         r="6.840004" /><circle
         style="fill:url(#radialGradient2);stroke:#f5b0ac;stroke-width:0.560609;stroke-linecap:square;stroke-linejoin:round;stroke-dasharray:none"
         id="circle2"
         cx="16.933332"
         cy="16.933332"
         r="6.840004" /><g
         id="g5"
         transform="translate(-0.3013858,0.64293965)"><circle
           style="fill:#dc7d7d;stroke:#f5b0ac;stroke-width:1.05833;stroke-linecap:square;stroke-linejoin:round;stroke-dasharray:none"
           id="path3-38"
           cx="17.234718"
           cy="14.173726"
           r="1.9297562" /><circle
           style="fill:#dc7d7d;stroke:#f5b0ac;stroke-width:1.05833;stroke-linecap:square;stroke-linejoin:round;stroke-dasharray:none"
           id="circle4"
           cx="14.588885"
           cy="18.407061"
           r="1.9297562" /><circle
           style="fill:#dc7d7d;stroke:#f5b0ac;stroke-width:1.05833;stroke-linecap:square;stroke-linejoin:round;stroke-dasharray:none"
           id="circle5"
           cx="19.880552"
           cy="18.407061"
           r="1.9297562" /></g></g><g
       inkscape:label="Layer 1"
       id="layer1-8"
       transform="translate(69.644615,81.502024)"><path
         sodipodi:type="star"
         style="fill:#375c51;stroke:#2e432f;stroke-width:0.3;stroke-linejoin:bevel"
         id="path1-46"
         inkscape:flatsided="false"
         sodipodi:sides="2"
         sodipodi:cx="5.6561818"
         sodipodi:cy="5.8558116"
         sodipodi:r1="20.304001"
         sodipodi:r2="10.152001"
         sodipodi:arg1="0.78539816"
         sodipodi:arg2="2.3561945"
         inkscape:rounded="0"
         inkscape:randomized="0"
         d="M 20.013279,20.212908 -1.5223673,13.034361 -8.7009149,-8.501285 12.834731,-1.3227374 Z"
         inkscape:transform-center-x="0.98151381"
         inkscape:transform-center-y="-0.9815138"
         transform="translate(11.277151,11.077521)" /><path
         sodipodi:type="star"
         style="fill:#2e432f;stroke:#2e432f;stroke-width:0.3;stroke-linejoin:bevel"
         id="path2-8"
         inkscape:flatsided="false"
         sodipodi:sides="2"
         sodipodi:cx="5.6561818"
         sodipodi:cy="5.8558116"
         sodipodi:r1="20.304001"
         sodipodi:r2="10.152001"
         sodipodi:arg1="0.78539816"
         sodipodi:arg2="2.3561945"
         inkscape:rounded="0"
         inkscape:randomized="0"
         d="M 20.013279,20.212908 -1.5223673,13.034361 -8.7009149,-8.501285 12.834731,-1.3227374 Z"
         inkscape:transform-center-x="0.57835715"
         inkscape:transform-center-y="-0.57835706"
         transform="matrix(0.58925009,0,0,0.58925009,13.600427,13.482795)" /></g><g
       inkscape:label="Layer 1"
       id="layer1-36"
       transform="translate(98.189759,74.028956)"><path
         id="path1-1"
         style="fill:#f6e4c1;stroke:#b1a29d;stroke-width:1.6;stroke-linejoin:bevel"
         d="m 16.933333,6.5587727 c -0.681547,0 -1.362919,0.2611779 -1.885156,0.7834147 L 7.9054605,14.484904 c -1.0349406,1.195541 -0.6264987,3.57511 -0.6650757,5.277197 -2.759e-4,5.353465 4.3394832,9.693455 9.6929482,9.693465 5.353465,-10e-6 9.693224,-4.34 9.692948,-9.693465 0,-2.081757 0.687792,-3.730536 -0.665075,-5.277197 L 18.818489,7.3421874 C 18.296252,6.8199506 17.61488,6.5587727 16.933333,6.5587727 Z"
         sodipodi:nodetypes="ssscccsss" /><path
         style="fill:#f6e4c1;stroke:#b1a29d;stroke-width:0.257275;stroke-linejoin:bevel;stroke-dasharray:none"
         d="M 9.1911695,15.307636 H 24.675497 l -7.742164,12.838608 z"
         id="path2-33" /></g><g
       inkscape:label="Layer 1"
       id="layer1-2"
       transform="translate(132.12548,62.769013)"><rect
         style="fill:#6aa8bd;stroke:#abf1f5;stroke-width:1;stroke-dasharray:none"
         id="rect1"
         width="29.737642"
         height="29.737642"
         x="2.0703421"
         y="1.9762356"
         ry="2.6662638" /><rect
         style="fill:#6aa8bd;stroke:#abf1f5;stroke-width:0.620361;stroke-dasharray:none"
         id="rect2"
         width="18.44808"
         height="18.44808"
         x="7.7092929"
         y="7.7092929"
         ry="1.6540467" /></g></g></svg>
